<?xml version="1.0" encoding="utf-8"?>
<svg version="1.1" id="Layer_1" xmlns="http://www.w3.org/2000/svg" xmlns:xlink="http://www.w3.org/1999/xlink" x="0px" y="0px"
	 viewBox="0 0 512 512" enable-background="new 0 0 512 512" xml:space="preserve">
<circle fill="#71BACA" cx="254.8" cy="256.1" r="255.2"/>
<path fill="#285E63" d="M322,263.6L250.4,192c-1.7-1.7-2.9-3.5-3.6-5.5c-0.7-2-1.1-4.1-1.1-6.3c0-2.2,0.3-4.4,1.1-6.3
	c0.7-2,1.9-3.8,3.6-5.5L322,96.8c1.7-1.7,3.5-2.9,5.5-3.6c2-0.7,4.1-1.1,6.3-1.1c2.2,0,4.4,0.3,6.3,1.1s3.8,1.9,5.5,3.6l71.6,71.6
	c1.7,1.7,2.9,3.5,3.6,5.5c0.7,2,1.1,4.1,1,6.3c0,2.2-0.4,4.4-1,6.3c-0.7,2-1.9,3.8-3.6,5.5l-71.6,71.6c-1.7,1.7-3.5,2.9-5.5,3.6
	c-2,0.7-4.1,1.1-6.3,1c-2.2,0-4.4-0.4-6.3-1C325.5,266.5,323.7,265.3,322,263.6 M103.8,224.8V123.7c0-4.8,1.6-8.8,4.9-12
	c3.2-3.2,7.2-4.8,12-4.9h101.1c4.8,0,8.8,1.6,12,4.9c3.2,3.2,4.8,7.2,4.8,12v101.1c0,4.8-1.6,8.8-4.9,12c-3.2,3.2-7.2,4.8-12,4.8
	H120.6c-4.8,0-8.8-1.6-12-4.9C105.4,233.6,103.8,229.6,103.8,224.8 M272.3,393.3V292.2c0-4.8,1.6-8.8,4.9-12s7.2-4.8,12-4.9h101.1
	c4.8,0,8.8,1.6,12,4.9c3.2,3.2,4.8,7.2,4.8,12v101.1c0,4.8-1.6,8.8-4.9,12c-3.2,3.2-7.2,4.8-12,4.8H289.1c-4.8,0-8.8-1.6-12-4.9
	C273.9,402,272.3,398,272.3,393.3 M103.8,393.3V292.2c0-4.8,1.6-8.8,4.9-12s7.2-4.8,12-4.9h101.1c4.8,0,8.8,1.6,12,4.9
	c3.2,3.2,4.8,7.2,4.8,12v101.1c0,4.8-1.6,8.8-4.9,12c-3.2,3.2-7.2,4.8-12,4.8H120.6c-4.8,0-8.8-1.6-12-4.9
	C105.4,402,103.8,398,103.8,393.3 M137.5,208h67.4v-67.4h-67.4V208z M334.2,228.2l47.6-47.6L334.2,133l-47.6,47.6L334.2,228.2z
	 M306,376.4h67.4V309H306V376.4z M137.5,376.4h67.4V309h-67.4V376.4z"/>
</svg>
